name Walk9.mot
datacolumns 19
datarows 15
range 1.99300000 2.00700000
endheader

                time	   L_ground_force_vx	   L_ground_force_vy	   L_ground_force_vz	   L_ground_force_px	   L_ground_force_py	   L_ground_force_pz	   R_ground_force_vx	   R_ground_force_vy	   R_ground_force_vz	   R_ground_force_px	   R_ground_force_py	   R_ground_force_pz	   L_ground_torque_x	   L_ground_torque_y	   L_ground_torque_z	   R_ground_torque_x	   R_ground_torque_y	   R_ground_torque_z	
          1.99300000	          0.13563838	          0.45065874	         -0.00328776	         -0.00008897	          0.00000000	         -0.00002743	        -22.67274009	        667.54701676	        -48.98506779	          0.15693077	          0.00000000	          0.06383275	          0.00000000	         -0.00042494	          0.00000000	          0.00000000	          7.91169347	          0.00000000	
          1.99400000	          0.13243506	          0.44018574	         -0.00412581	         -0.00011679	          0.00000000	         -0.00003696	        -22.20097620	        666.14404041	        -48.93360508	          0.15734562	          0.00000000	          0.06389098	          0.00000000	         -0.00041303	          0.00000000	          0.00000000	          7.90778892	          0.00000000	
          1.99500000	          0.12900366	          0.42893984	         -0.00487702	         -0.00014181	          0.00000000	         -0.00004554	        -21.73416501	        664.79359345	        -48.88221286	          0.15775655	          0.00000000	          0.06394761	          0.00000000	         -0.00040057	          0.00000000	          0.00000000	          7.90264300	          0.00000000	
          1.99600000	          0.12537653	          0.41702924	         -0.00554593	         -0.00016416	          0.00000000	         -0.00005321	        -21.27218124	        663.49591305	        -48.83088762	          0.15816352	          0.00000000	          0.06400264	          0.00000000	         -0.00038765	          0.00000000	          0.00000000	          7.89625220	          0.00000000	
          1.99700000	          0.12158403	          0.40455548	         -0.00613701	         -0.00018399	          0.00000000	         -0.00006004	        -20.81490235	        662.25116542	        -48.77961809	          0.15856650	          0.00000000	          0.06405605	          0.00000000	         -0.00037437	          0.00000000	          0.00000000	          7.88861419	          0.00000000	
          1.99800000	          0.11765455	          0.39161357	         -0.00665464	         -0.00020145	          0.00000000	         -0.00006605	        -20.36220907	        661.05944518	        -48.72838555	          0.15896545	          0.00000000	          0.06410784	          0.00000000	         -0.00036080	          0.00000000	          0.00000000	          7.87972785	          0.00000000	
          1.99900000	          0.11361458	          0.37829222	         -0.00710311	         -0.00021665	          0.00000000	         -0.00007131	        -19.91398601	        659.92077629	        -48.67716409	          0.15936035	          0.00000000	          0.06415799	          0.00000000	         -0.00034703	          0.00000000	          0.00000000	          7.86959314	          0.00000000	
          2.00000000	          0.10948878	          0.36467402	         -0.00748662	         -0.00022975	          0.00000000	         -0.00007585	        -19.47012225	        658.83511510	        -48.62592075	          0.15975117	          0.00000000	          0.06420651	          0.00000000	         -0.00033311	          0.00000000	          0.00000000	          7.85821086	          0.00000000	
          2.00100000	          0.10530004	          0.35083568	         -0.00780922	         -0.00024086	          0.00000000	         -0.00007971	        -19.03051159	        657.80235556	        -48.57461545	          0.16013790	          0.00000000	          0.06425337	          0.00000000	         -0.00031912	          0.00000000	          0.00000000	          7.84558220	          0.00000000	
          2.00200000	          0.10106954	          0.33684821	         -0.00807489	         -0.00025012	          0.00000000	         -0.00008295	        -18.59505249	        656.82233579	        -48.52320088	          0.16052052	          0.00000000	          0.06429858	          0.00000000	         -0.00030511	          0.00000000	          0.00000000	          7.83170829	          0.00000000	
          2.00300000	          0.09681681	          0.32277714	         -0.00828745	         -0.00025764	          0.00000000	         -0.00008560	        -18.16364784	        655.89484474	        -48.47162243	          0.16089902	          0.00000000	          0.06434212	          0.00000000	         -0.00029114	          0.00000000	          0.00000000	          7.81658971	          0.00000000	
          2.00400000	          0.09255983	          0.30868276	         -0.00845063	         -0.00026356	          0.00000000	         -0.00008770	        -17.73620473	        655.01962741	        -48.41981825	          0.16127341	          0.00000000	          0.06438398	          0.00000000	         -0.00027725	          0.00000000	          0.00000000	          7.80022627	          0.00000000	
          2.00500000	          0.08831502	          0.29462029	         -0.00856800	         -0.00026797	          0.00000000	         -0.00008929	        -17.31263436	        654.19638809	        -48.36771956	          0.16164371	          0.00000000	          0.06442416	          0.00000000	         -0.00026350	          0.00000000	          0.00000000	          7.78261685	          0.00000000	
          2.00600000	          0.08409741	          0.28064018	         -0.00864301	         -0.00027100	          0.00000000	         -0.00009040	        -16.89285202	        653.42479164	        -48.31525121	          0.16200993	          0.00000000	          0.06446265	          0.00000000	         -0.00024993	          0.00000000	          0.00000000	          7.76375966	          0.00000000	
          2.00700000	          0.07992061	          0.26678823	         -0.00867899	         -0.00027274	          0.00000000	         -0.00009108	        -16.47677704	        652.70446360	        -48.26233247	          0.16237211	          0.00000000	          0.06449945	          0.00000000	         -0.00023656	          0.00000000	          0.00000000	          7.74365262	          0.00000000	
